<svg width="64" height="64" viewBox="0 0 64 64" fill="none" xmlns="http://www.w3.org/2000/svg">
  <rect width="64" height="64" rx="32" fill="#12090D"/>
  <circle cx="32" cy="32" r="24" stroke="#E3B85D" stroke-width="2"/>
  <path d="M25.5 20H41.5V22.6C38.7 22.8 37.6 23.9 37.6 27.1V37.7C37.6 44 34 47.7 28.1 47.7C24.2 47.7 21.2 46 19.5 43.7L21.3 41.7C22.8 43.3 24.4 44.2 26.5 44.2C29.8 44.2 31.5 42.1 31.5 37.8V27.1C31.5 23.9 30.2 22.8 25.5 22.6V20Z" fill="#FFF6E8"/>
  <path d="M43.8 17.9C45.3 19.5 45.3 22 43.8 23.6C42.2 22 39.7 22 38.1 23.6C36.5 22 36.5 19.5 38.1 17.9C39.7 16.3 42.2 16.3 43.8 17.9Z" fill="#741C2A"/>
</svg>
